<svg height="16" 
    xmlns="http://www.w3.org/2000/svg" viewBox="0 0 84.4 9.09">
    <title>IBM Blockchain</title>
    <g id="Layer_2" data-name="Layer 2">
        <g id="Layer_2-2" data-name="Layer 1">
            <path d="M0,8.95v-.6H1.22V1.18H0V.58H3.17v.6H1.94V8.35H3.17v.6Z"></path>
            <path d="M5.11.58H8.39a1.94,1.94,0,0,1,2.1,2.11A1.69,1.69,0,0,1,9.2,4.51v0a1.87,1.87,0,0,1,1.61,2A2.14,2.14,0,0,1,8.69,8.95H5.11Zm.72,3.71H8.31A1.26,1.26,0,0,0,9.72,3V2.52a1.26,1.26,0,0,0-1.4-1.31H5.83Zm0,4H8.49A1.4,1.4,0,0,0,10,6.82V6.38A1.4,1.4,0,0,0,8.49,4.91H5.83Z"></path>
            <path d="M19.35,1.5h0L16.4,6.62,13.51,1.51h0V8.95h-.7V.58h1l2.65,4.71h0L19.08.58h1V8.95h-.7Z"></path>
            <path d="M25.06.58h3.87a2,2,0,0,1,2.22,2.15,1.57,1.57,0,0,1-1.5,1.8v.07a1.84,1.84,0,0,1,1.81,2,2.25,2.25,0,0,1-2.16,2.4H25.06Zm1.58,3.49h2a.83.83,0,0,0,.91-.89V2.81a.82.82,0,0,0-.91-.89h-2Zm0,3.54h2.21a.85.85,0,0,0,1-.91V6.28a.86.86,0,0,0-1-.92H26.64Z"></path>
            <path d="M34.45,8.95a1.36,1.36,0,0,1-1.54-1.51V.07h1.54V7.72h.83V8.95Z"></path>
            <path d="M36,5.81c0-2,1.12-3.26,2.9-3.26s2.91,1.26,2.91,3.26-1.12,3.29-2.91,3.29S36,7.82,36,5.81Zm4.21.59V5.23c0-.94-.5-1.45-1.31-1.45s-1.3.52-1.3,1.45V6.39c0,.95.5,1.46,1.3,1.46S40.23,7.34,40.23,6.39Z"></path>
            <path d="M42.78,5.81c0-2,1-3.26,2.89-3.26a2.42,2.42,0,0,1,2.46,1.58l-1.26.56a1.17,1.17,0,0,0-1.2-.91c-.85,0-1.28.6-1.28,1.48V6.39c0,.88.43,1.46,1.28,1.46a1.34,1.34,0,0,0,1.32-1l1.18.56a2.45,2.45,0,0,1-2.5,1.66C43.82,9.09,42.78,7.82,42.78,5.81Z"></path>
            <path d="M49.36.07h1.54V5.42H51l.83-1.13,1.4-1.61h1.74L52.76,5.11l2.39,3.84H53.33L51.72,6.14l-.83.9V8.95H49.36Z"></path>
            <path d="M55.4,5.81c0-2,1-3.26,2.89-3.26a2.42,2.42,0,0,1,2.46,1.58l-1.26.56a1.17,1.17,0,0,0-1.2-.91c-.85,0-1.28.6-1.28,1.48V6.39c0,.88.43,1.46,1.28,1.46a1.34,1.34,0,0,0,1.32-1l1.18.56a2.45,2.45,0,0,1-2.5,1.66C56.45,9.09,55.4,7.82,55.4,5.81Z"></path>
            <path d="M62,.07h1.54V3.73h.06a1.73,1.73,0,0,1,1.75-1.19c1.28,0,2,.89,2,2.45v4H65.79V5.15c0-.89-.3-1.34-1-1.34s-1.25.34-1.25,1V8.95H62Z"></path>
            <path d="M68.59,7.24c0-1.28,1-1.92,2.67-1.92h1.07V4.87c0-.7-.35-1.1-1.16-1.1a1.63,1.63,0,0,0-1.43.79l-.91-.82a2.64,2.64,0,0,1,2.45-1.2c1.69,0,2.59.8,2.59,2.23v3h.62V8.95h-.85a1.14,1.14,0,0,1-1.16-1.08h-.07a1.69,1.69,0,0,1-1.82,1.22A1.77,1.77,0,0,1,68.59,7.24Zm3.74-.17V6.25h-1c-.8,0-1.2.28-1.2.77v.2c0,.5.35.76.95.76S72.33,7.66,72.33,7.08Z"></path>
            <path d="M75.61,1V.77c0-.44.26-.77.9-.77s.9.32.9.77V1c0,.44-.28.77-.9.77S75.61,1.45,75.61,1Zm.13,1.68h1.54V8.95H75.74Z"></path>
            <path d="M79.06,8.95V2.69h1.54v1h.06A1.73,1.73,0,0,1,82.4,2.54c1.28,0,2,.89,2,2.45v4H82.87V5.15c0-.89-.3-1.34-1-1.34s-1.25.34-1.25,1V8.95Z"></path>
        </g>
    </g>
</svg>